<svg id="visual" viewBox="0 0 960 540" width="960" height="540" xmlns="http://www.w3.org/2000/svg" xmlns:xlink="http://www.w3.org/1999/xlink" version="1.1"><rect x="0" y="0" width="960" height="540" fill="#0090d8"></rect><defs><linearGradient id="grad1_0" x1="43.8%" y1="0%" x2="100%" y2="100%"><stop offset="14.444444444444446%" stop-color="#0078c0" stop-opacity="1"></stop><stop offset="85.55555555555554%" stop-color="#0078c0" stop-opacity="1"></stop></linearGradient></defs><defs><linearGradient id="grad1_1" x1="43.8%" y1="0%" x2="100%" y2="100%"><stop offset="14.444444444444446%" stop-color="#0078c0" stop-opacity="1"></stop><stop offset="85.55555555555554%" stop-color="#0090d8" stop-opacity="1"></stop></linearGradient></defs><defs><linearGradient id="grad2_0" x1="0%" y1="0%" x2="56.3%" y2="100%"><stop offset="14.444444444444446%" stop-color="#0078c0" stop-opacity="1"></stop><stop offset="85.55555555555554%" stop-color="#0078c0" stop-opacity="1"></stop></linearGradient></defs><defs><linearGradient id="grad2_1" x1="0%" y1="0%" x2="56.3%" y2="100%"><stop offset="14.444444444444446%" stop-color="#0090d8" stop-opacity="1"></stop><stop offset="85.55555555555554%" stop-color="#0078c0" stop-opacity="1"></stop></linearGradient></defs><g transform="translate(960, 0)"><path d="M0 324C-42.5 317.8 -85.1 311.5 -122.1 294.7C-159.1 277.9 -190.5 250.5 -221.3 221.3C-252.1 192.1 -282.3 161.2 -299.3 124C-316.3 86.8 -320.2 43.4 -324 0L0 0Z" fill="#0084cc"></path><path d="M0 162C-21.3 158.9 -42.5 155.8 -61 147.4C-79.5 139 -95.3 125.3 -110.7 110.7C-126.1 96.1 -141.2 80.6 -149.7 62C-158.2 43.4 -160.1 21.7 -162 0L0 0Z" fill="#0078c0"></path></g><g transform="translate(0, 540)"><path d="M0 -324C35.3 -302.2 70.6 -280.5 111 -267.9C151.3 -255.4 196.7 -252.1 229.1 -229.1C261.5 -206.1 281.1 -163.5 294.7 -122.1C308.4 -80.6 316.2 -40.3 324 0L0 0Z" fill="#0084cc"></path><path d="M0 -162C17.7 -151.1 35.3 -140.2 55.5 -134C75.7 -127.7 98.3 -126 114.6 -114.6C130.8 -103.1 140.5 -81.8 147.4 -61C154.2 -40.3 158.1 -20.2 162 0L0 0Z" fill="#0078c0"></path></g></svg>