<svg id="visual" viewBox="0 0 960 300" width="960" height="300" xmlns="http://www.w3.org/2000/svg" xmlns:xlink="http://www.w3.org/1999/xlink" version="1.1"><rect x="0" y="0" width="960" height="300" fill="#000048"></rect><path d="M0 211L40 201.3C80 191.7 160 172.3 240 160.5C320 148.7 400 144.3 480 155.7C560 167 640 194 720 195C800 196 880 171 920 158.5L960 146L960 301L920 301C880 301 800 301 720 301C640 301 560 301 480 301C400 301 320 301 240 301C160 301 80 301 40 301L0 301Z" fill="#0078c0" stroke-linecap="round" stroke-linejoin="miter"></path></svg>